<svg width="24" height="24" viewBox="0 0 24 24" fill="none" xmlns="http://www.w3.org/2000/svg">
<path d="M6.19604 10.2356L5.20216 10.1252L6.19604 10.2356ZM6.18959 10.2933L5.19611 10.1793L6.18959 10.2933ZM5.08665 13.5222L4.22916 13.0077L5.08665 13.5222ZM5.11644 13.4725L5.97578 13.9839L5.11644 13.4725ZM17.804 10.2356L18.7978 10.1252L17.804 10.2356ZM17.8104 10.2933L16.8169 10.4073L17.8104 10.2933ZM18.9133 13.5222L19.7708 13.0077L18.9133 13.5222ZM18.8836 13.4725L19.7429 12.9611L18.8836 13.4725ZM4.12434 16.7668L3.48248 17.5337L4.12434 16.7668ZM3.77841 16.1559L2.79063 16.3117L3.77841 16.1559ZM19.8757 16.7668L19.2338 16L19.8757 16.7668ZM20.2216 16.1559L21.2094 16.3117L20.2216 16.1559ZM18.0678 16H5.93223V18H18.0678V16ZM16.5583 8.07985L16.8101 10.3461L18.7978 10.1252L18.546 7.85899L16.5583 8.07985ZM7.18992 10.3461L7.44173 8.07985L5.45396 7.85899L5.20216 10.1252L7.18992 10.3461ZM5.36611 15.0001L5.94415 14.0367L4.22916 13.0077L3.65113 13.9711L5.36611 15.0001ZM18.0559 14.0367L18.6339 15.0001L20.3489 13.9711L19.7708 13.0077L18.0559 14.0367ZM5.20216 10.1252C5.19887 10.1548 5.19749 10.1672 5.19611 10.1793L7.18307 10.4073C7.18496 10.3908 7.18679 10.3743 7.18992 10.3461L5.20216 10.1252ZM5.94415 14.0367C5.95875 14.0124 5.9673 13.9982 5.97578 13.9839L4.25711 12.9611C4.25088 12.9715 4.24447 12.9822 4.22916 13.0077L5.94415 14.0367ZM5.19611 10.1793C5.08328 11.1625 4.76324 12.1106 4.25711 12.9611L5.97578 13.9839C6.62652 12.8904 7.038 11.6714 7.18307 10.4073L5.19611 10.1793ZM16.8101 10.3461C16.8132 10.3743 16.815 10.3908 16.8169 10.4073L18.8039 10.1793C18.8025 10.1672 18.8011 10.1548 18.7978 10.1252L16.8101 10.3461ZM19.7708 13.0077C19.7555 12.9822 19.7491 12.9715 19.7429 12.9611L18.0242 13.9839C18.0327 13.9982 18.0412 14.0124 18.0559 14.0367L19.7708 13.0077ZM16.8169 10.4073C16.962 11.6714 17.3735 12.8904 18.0242 13.9839L19.7429 12.9611C19.2368 12.1106 18.9167 11.1625 18.8039 10.1793L16.8169 10.4073ZM5.93223 16C5.40064 16 5.07826 15.9988 4.85052 15.9759C4.61699 15.9524 4.66969 15.9192 4.76619 16L3.48248 17.5337C3.85755 17.8476 4.30443 17.931 4.65032 17.9658C5.00199 18.0012 5.44428 18 5.93223 18V16ZM3.65113 13.9711C3.40008 14.3896 3.17148 14.7682 3.02089 15.0879C2.87277 15.4024 2.7144 15.8286 2.79063 16.3117L4.76619 16C4.7858 16.1243 4.73026 16.1524 4.83026 15.9401C4.92779 15.733 5.09261 15.456 5.36611 15.0001L3.65113 13.9711ZM4.76619 16H4.76619L2.79063 16.3117C2.86598 16.7893 3.11176 17.2233 3.48248 17.5337L4.76619 16ZM18.0678 18C18.5557 18 18.998 18.0012 19.3497 17.9658C19.6956 17.931 20.1424 17.8476 20.5175 17.5337L19.2338 16C19.3303 15.9192 19.383 15.9524 19.1495 15.9759C18.9217 15.9988 18.5994 16 18.0678 16V18ZM18.6339 15.0001C18.9074 15.456 19.0722 15.733 19.1697 15.9401C19.2697 16.1524 19.2142 16.1243 19.2338 16L21.2094 16.3117C21.2856 15.8286 21.1272 15.4024 20.9791 15.0879C20.8285 14.7682 20.5999 14.3896 20.3489 13.9711L18.6339 15.0001ZM20.5175 17.5337C20.8882 17.2233 21.134 16.7893 21.2094 16.3117L19.2338 16L19.2338 16L20.5175 17.5337ZM12 4C14.337 4 16.3002 5.75719 16.5583 8.07985L18.546 7.85899C18.1754 4.52346 15.3561 2 12 2V4ZM12 2C8.64394 2 5.82457 4.52345 5.45396 7.85899L7.44173 8.07985C7.6998 5.75718 9.66304 4 12 4V2Z" fill="white"/>
<path d="M9.10222 17.6647C9.27315 18.6215 9.64978 19.467 10.1737 20.0701C10.6976 20.6731 11.3396 21 12 21C12.6604 21 13.3024 20.6731 13.8263 20.0701C14.3502 19.467 14.7269 18.6215 14.8978 17.6647" stroke="white" stroke-width="2" stroke-linecap="round"/>
</svg>
