<svg width="151" height="69" viewBox="0 0 151 69" fill="none" xmlns="http://www.w3.org/2000/svg">
<path d="M68 42.4C68 44.1 67.7 45.3 67 46.1C66.3 46.9 65.2 47.3 63.7 47.3C62.1 47.3 61 46.9 60.3 46.1C59.6 45.3 59.3 44.1 59.3 42.4V29.1H54.7V43.1C54.7 45.6 55.5 47.6 57 49C58.5 50.4 60.7 51.2 63.5 51.2C65.4 51.2 67 50.9 68.3 50.2C69.7 49.6 70.7 48.6 71.4 47.4C72.1 46.2 72.5 44.8 72.5 43.2V29.1H68V42.4Z" fill="white"/>
<path d="M90.7 29.1V43.7L82.9 29.1H77.5V50.9H82.1V36.2L89.9 50.9H95.3V29.1H90.7Z" fill="white"/>
<path d="M125.9 30.7C124.5 29.6 122.5 29 119.9 29H112.9V50.8H117.5V43H119.5C122.2 43 124.3 42.4 125.8 41.1C127.3 39.9 128 38.1 128 35.7C128 33.5 127.3 31.8 125.9 30.7ZM122.3 38.4C121.6 39 120.5 39.2 119.1 39.2H117.6V32.7H119.7C121 32.7 121.9 33 122.5 33.5C123.1 34 123.4 34.8 123.4 35.9C123.3 37 123 37.9 122.3 38.4Z" fill="white"/>
<path d="M99.3 29.1V32.7H101.7V47.3H99.3V50.9H108.8V47.3H106.3V32.7H108.8V29.1H99.3Z" fill="white"/>
<path d="M151 0H136.3V7.2H139.9V61.3H11.2V7.2H14.7V0H0V7.2H3.6V69H147.5V7.2H151V0Z" fill="#FFE500"/>
</svg>
